<?xml version="1.0" encoding="UTF-8"?>
<svg id="re"
	xmlns="http://www.w3.org/2000/svg" viewBox="0 0 2000 2000">
	<style>.color{fill:#00affe}</style>
	<path id="Bottom_E" class="color" d="M1674.4,1453.5l-210.58-210.59c-37.8-37.8-102.43-11.03-102.43,42.43v117.64c0,.06-.05.1-.1.1h-240.52c-130.81,0-236.85-106.04-236.85-236.85v-625.38c0-33.14-26.86-60-60-60h-65.68c-33.14,0-60,26.86-60,60v625.38c0,233.36,189.18,422.54,422.54,422.54h240.52c.06,0,.1.05.1.1v117.64c0,53.45,64.63,80.22,102.43,42.43l210.58-210.59c23.43-23.43,23.43-61.42,0-84.85Z"/>
	<path id="Top_R" class="color" d="M1297.76,233.37h-597.84c-233.36,0-422.54,189.18-422.54,422.54v872.44c0,33.14,26.86,60,60,60h65.68c33.14,0,60-26.86,60-60v-872.44c0-130.81,106.04-236.85,236.85-236.85h598.26c134.71,0,243.18,110.22,238.63,244.85-4.29,126.77-108.72,228.59-236.51,228.64-.06,0-.11-.05-.11-.1v-117.64c0-53.45-64.63-80.22-102.43-42.43l-210.58,210.59c-23.43,23.43-23.43,61.42,0,84.85l210.58,210.59c37.8,37.8,102.43,11.03,102.43-42.43v-117.64c0-.06.05-.1.1-.1,232.01-.06,420.9-188.11,422.32-419.8,1.44-234.72-190.14-425.06-424.86-425.06Z"/>
</svg>
