<?xml version="1.0" encoding="UTF-8"?>
<svg id="reShuffle"
	xmlns="http://www.w3.org/2000/svg" viewBox="0 0 4555 1000">
	<style>.color{fill:#00affe;}</style>
	<g id="text">
		<path id="r" d="M1045.49,807.94v-316.89c0-16.57,13.43-30,30-30h60.27c15.67,0,28.7,12.06,29.91,27.69l1.83,23.74c17.88-37.3,55.64-59.28,99.75-59.28,6.26,0,12.58.47,18.97,1.39,15.6,2.23,26.85,16.09,25.75,31.81l-3.34,47.73c-1.19,17.08-16.43,29.76-33.43,27.69-5.73-.7-11.44-1.05-17.1-1.05-47.29,0-87.43,25.52-87.43,95.79v151.38c0,16.57-13.43,30-30,30h-65.19c-16.57,0-30-13.43-30-30Z"/>
		<path id="e" d="M1527.58,453.2c93.79,0,190.77,58.1,190.77,184.13,0,5.12-.17,10.4-.5,15.81-.97,15.82-14.1,28.16-29.95,28.16h-230.67c5.17,40.83,44.91,60.07,84.26,60.07,25.36,0,48.74-11.67,67.57-28.11,11.25-9.83,28.05-9.77,39.32.03l36.43,31.67c13.01,11.31,13.87,31.28,1.8,43.59-32.65,33.3-83.94,57.25-146.71,57.25-121.22,0-205.07-81.66-205.07-196.3s77.9-196.3,192.75-196.3ZM1457.23,608.67h145.46c-1.19-29.44-31.4-58.1-71.54-58.1-43.72,0-69.55,27.09-73.92,58.1Z"/>
		<path id="s" d="M1851.72,669.64c12.52-9.02,29.77-7,40.04,4.52,30.64,34.38,73.18,55.03,117.11,55.03s77.5-16.88,77.5-41.22c0-34.16-45.7-44.36-110.49-63.6-96.58-28.66-184.41-59.28-184.41-168.42,0-98.15,96.97-159,195.93-159,83.24,0,146.07,34.1,192.4,88.13,11.42,13.32,9.11,33.53-5.08,43.85l-48.52,35.31c-12.39,9.02-29.6,7.25-39.87-4.12-23.92-26.47-57.29-49.71-98.92-49.71-37.76,0-63.99,17.67-63.99,43.19,0,35.33,41.33,41.62,99.75,60.85,122.01,40.04,195.14,71.84,195.14,169.21,0,111.1-109.69,162.14-212.63,162.14-85.94,0-167.2-33.3-212.8-96.63-9.72-13.5-6.78-32.3,6.72-42.02l52.1-37.51Z"/>
		<path id="h" d="M2303.36,807.94v-492.77c0-16.57,13.43-30,30-30h65.19c16.57,0,30,13.43,30,30v178.47c27.42-28.66,70.35-40.44,112.08-40.44,71.94,0,141.09,49.86,141.09,139.76v214.98c0,16.57-13.43,30-30,30h-65.19c-16.57,0-30-13.43-30-30v-179.65c0-42.01-33.78-62.03-63.99-62.03s-63.59,20.02-63.59,62.03v179.65c0,16.57-13.43,30-30,30h-65.59c-16.57,0-30-13.43-30-30Z"/>
		<path id="u" d="M2781.47,709.96v-218.9c0-16.57,13.43-30,30-30h65.19c16.57,0,30,13.43,30,30v183.57c0,42.01,33.78,62.03,63.99,62.03s63.59-20.02,63.59-62.03v-183.57c0-16.57,13.43-30,30-30h65.19c16.57,0,30,13.43,30,30v316.89c0,16.57-13.43,30-30,30h-58.01c-15.28,0-28.13-11.49-29.82-26.68l-1.01-9.04c-27.02,33.76-73.13,47.5-118.04,47.5-71.94,0-141.09-49.86-141.09-139.76Z"/>
		<path id="ffl" d="M3288.99,461.05v-32.98c0-78.13,50.08-150.76,166.92-150.76,19.36,0,36.1,1.66,54.59,5.62,15.27,3.27,25.48,17.73,23.46,33.22l-5.28,40.49c-2.17,16.61-17.51,28.19-34.09,25.8-6.6-.95-13.49-1.49-20.39-1.49-32.19,0-64.38,12.56-64.38,54.18v25.91h139.9v-32.98c0-78.13,46.5-150.76,155-150.76,18.18,0,33.84,1.6,50.98,5.39,15.13,3.35,25.13,17.78,23.13,33.15l-5.24,40.19c-2.14,16.36-17.11,28.08-33.46,25.89-4.68-.63-9.51-.97-14.34-.97-27.42,0-55.24,12.56-55.24,54.18v25.91h67.77c16.57,0,30,13.43,30,30v40.9c0,16.57-13.43,30-30,30h-63.4v245.99c0,16.57-13.43,30-30,30h-65.19c-16.57,0-30-13.43-30-30v-245.99h-135.52v245.99c0,16.57-13.43,30-30,30h-65.19c-16.57,0-30-13.43-30-30v-245.99h-32.79c-16.57,0-30-13.43-30-30v-40.9c0-16.57,13.43-30,30-30h32.79ZM3932.04,315.17v492.77c0,16.57-13.43,30-30,30h-65.19c-16.57,0-30-13.43-30-30v-492.77c0-16.57,13.43-30,30-30h65.19c16.57,0,30,13.43,30,30Z"/>
		<path id="e2" d="M4207.06,453.2c93.79,0,190.77,58.1,190.77,184.13,0,5.12-.17,10.4-.5,15.81-.97,15.82-14.1,28.16-29.95,28.16h-230.67c5.17,40.83,44.91,60.07,84.26,60.07,25.36,0,48.74-11.67,67.57-28.11,11.25-9.83,28.05-9.77,39.32.03l36.43,31.67c13.01,11.31,13.87,31.28,1.8,43.59-32.65,33.3-83.94,57.25-146.71,57.25-121.22,0-205.07-81.66-205.07-196.3s77.9-196.3,192.75-196.3ZM4136.71,608.67h145.46c-1.19-29.44-31.4-58.1-71.54-58.1-43.72,0-69.55,27.09-73.92,58.1Z"/>
	</g>
	<path id="Bottom_E" class="color" d="M859.73,770.7l-105.29-105.29c-18.9-18.9-51.21-5.51-51.21,21.21v58.82s-.02.05-.05.05h-120.26c-65.4,0-118.43-53.02-118.43-118.43v-312.69c0-16.57-13.43-30-30-30h-32.84c-16.57,0-30,13.43-30,30v312.69c0,116.68,94.59,211.27,211.27,211.27h120.26s.05.02.05.05v58.82c0,26.73,32.31,40.11,51.21,21.21l105.29-105.29c11.72-11.72,11.72-30.71,0-42.43Z"/>
	<path id="Top_R" class="color" d="M671.41,160.63h-298.92c-116.68,0-211.27,94.59-211.27,211.27v436.22c0,16.57,13.43,30,30,30h32.84c16.57,0,30-13.43,30-30v-436.22c0-65.4,53.02-118.43,118.43-118.43h299.13c67.36,0,121.59,55.11,119.31,122.43-2.14,63.39-54.36,114.29-118.25,114.32-.03,0-.05-.02-.05-.05v-58.82c0-26.73-32.31-40.11-51.21-21.21l-105.29,105.29c-11.72,11.72-11.72,30.71,0,42.43l105.29,105.29c18.9,18.9,51.21,5.51,51.21-21.21v-58.82s.02-.05.05-.05c116-.03,210.45-94.06,211.16-209.9.72-117.36-95.07-212.53-212.43-212.53Z"/>
</svg>