<?xml version="1.0" encoding="UTF-8"?>
<svg id="re"
	xmlns="http://www.w3.org/2000/svg" viewBox="0 0 2000 2000">
	<style>.color{fill:#00affe}</style>
	<path id="Bottom_E" class="color" d="M1879.69,1591.55l-274.69-274.69c-49.3-49.3-133.61-14.39-133.61,55.34v153.45c0,.07-.06.14-.14.14h-313.74c-170.63,0-308.95-138.32-308.95-308.95V401.08c0-43.22-35.04-78.26-78.26-78.26h-85.68c-43.22,0-78.26,35.04-78.26,78.26v815.75c0,304.4,246.76,551.16,551.16,551.16h313.74c.07,0,.14.06.14.14v153.45c0,69.73,84.3,104.65,133.61,55.34l274.69-274.69c30.56-30.56,30.56-80.12,0-110.68Z"/>
	<path id="Top_R" class="color" d="M1388.39,0h-779.83C304.17,0,57.41,246.76,57.41,551.16v1138.01c0,43.22,35.04,78.26,78.26,78.26h85.68c43.22,0,78.26-35.04,78.26-78.26V551.16c0-170.63,138.32-308.95,308.95-308.95h780.37c175.72,0,317.21,143.77,311.27,319.39-5.59,165.36-141.82,298.17-308.5,298.24-.08,0-.14-.06-.14-.14v-153.45c0-69.73-84.3-104.65-133.61-55.34l-274.69,274.69c-30.56,30.56-30.56,80.12,0,110.68l274.69,274.69c49.3,49.3,133.61,14.39,133.61-55.34v-153.45c0-.07.06-.13.13-.13,302.63-.07,549.03-245.37,550.88-547.59C1944.46,248.29,1694.57,0,1388.39,0Z"/>
</svg>
