<?xml version="1.0" encoding="utf-8"?>
<svg version="1.1" id="Layer_1" xmlns="http://www.w3.org/2000/svg" xmlns:xlink="http://www.w3.org/1999/xlink" x="0px" y="0px"
	 viewBox="0 0 566.9 170" style="enable-background:new 0 0 566.9 170;" xml:space="preserve">
<style type="text/css">
	.color{fill:#1ED760;}
</style>
<g>
	<g>
		<path class="color" d="M232.1,78.6c-14.5-3.4-17-5.9-17-11c0-4.8,4.5-8,11.2-8c6.5,0,13,2.5,19.8,7.5c0.2,0.2,0.5,0.2,0.7,0.2
			c0.3,0,0.5-0.2,0.6-0.4l7.1-10c0.3-0.4,0.2-1-0.2-1.3c-8.1-6.5-17.2-9.6-27.8-9.6c-15.6,0-26.5,9.4-26.5,22.8
			c0,14.4,9.4,19.5,25.7,23.4c13.8,3.2,16.2,5.9,16.2,10.6c0,5.3-4.7,8.6-12.3,8.6c-8.4,0-15.3-2.8-23-9.5c-0.2-0.2-0.5-0.2-0.7-0.2
			c-0.3,0-0.5,0.1-0.6,0.3l-7.9,9.4c-0.3,0.4-0.3,1,0.1,1.3c9,8,20,12.2,31.9,12.2c16.8,0,27.7-9.2,27.7-23.4
			C256.9,89.5,249.7,82.9,232.1,78.6z"/>
		<path class="color" d="M295,64.3c-7.3,0-13.3,2.9-18.2,8.8v-6.6c0-0.5-0.4-0.9-0.9-0.9h-12.9c-0.5,0-0.9,0.4-0.9,0.9v73.6
			c0,0.5,0.4,0.9,0.9,0.9h12.9c0.5,0,0.9-0.4,0.9-0.9v-23.2c4.9,5.5,10.9,8.2,18.2,8.2c13.5,0,27.3-10.4,27.3-30.4
			C322.2,74.8,308.5,64.3,295,64.3z M307.2,94.7c0,10.2-6.3,17.2-15.2,17.2c-8.9,0-15.5-7.4-15.5-17.2c0-9.8,6.7-17.2,15.5-17.2
			C300.8,77.5,307.2,84.7,307.2,94.7z"/>
		<path class="color" d="M357.4,64.3c-17.4,0-31.1,13.4-31.1,30.6c0,17,13.6,30.3,30.9,30.3c17.5,0,31.2-13.4,31.2-30.5
			C388.4,77.7,374.8,64.3,357.4,64.3z M357.4,112c-9.3,0-16.3-7.5-16.3-17.3c0-9.9,6.8-17.1,16.1-17.1c9.3,0,16.4,7.5,16.4,17.4
			C373.5,104.8,366.7,112,357.4,112z"/>
		<path class="color" d="M425.6,65.5h-14.2V50.9c0-0.5-0.4-0.9-0.9-0.9h-12.9c-0.5,0-0.9,0.4-0.9,0.9v14.6h-6.2
			c-0.5,0-0.9,0.4-0.9,0.9v11.1c0,0.5,0.4,0.9,0.9,0.9h6.2v28.8c0,11.6,5.8,17.5,17.2,17.5c4.6,0,8.5-1,12.1-3
			c0.3-0.2,0.5-0.5,0.5-0.8v-10.6c0-0.3-0.2-0.6-0.4-0.8c-0.3-0.2-0.6-0.2-0.9,0c-2.5,1.3-4.9,1.8-7.6,1.8c-4.2,0-6-1.9-6-6.1V78.5
			h14.2c0.5,0,0.9-0.4,0.9-0.9V66.5C426.6,65.9,426.2,65.5,425.6,65.5z"/>
		<path class="color" d="M475.3,65.6v-1.8c0-5.3,2-7.6,6.5-7.6c2.7,0,4.9,0.5,7.3,1.3c0.3,0.1,0.6,0,0.9-0.1c0.2-0.2,0.4-0.5,0.4-0.8
			V45.7c0-0.4-0.3-0.8-0.7-0.9c-2.6-0.8-5.8-1.5-10.8-1.5c-12,0-18.3,6.7-18.3,19.5v2.7h-6.2c-0.5,0-1,0.4-1,0.9v11.2
			c0,0.5,0.4,0.9,1,0.9h6.2v44.4c0,0.5,0.4,0.9,0.9,0.9h12.9c0.5,0,0.9-0.4,0.9-0.9V78.5h12.1l18.5,44.4c-2.1,4.7-4.2,5.6-7,5.6
			c-2.3,0-4.7-0.7-7.1-2c-0.2-0.1-0.5-0.1-0.8-0.1c-0.2,0.1-0.5,0.3-0.6,0.5l-4.4,9.6c-0.2,0.5,0,1,0.4,1.2
			c4.6,2.5,8.7,3.5,13.8,3.5c9.6,0,14.8-4.5,19.5-16.4l22.5-58c0.1-0.3,0.1-0.6-0.1-0.9c-0.2-0.3-0.5-0.4-0.8-0.4h-13.5
			c-0.4,0-0.8,0.3-0.9,0.6l-13.8,39.4l-15.1-39.5c-0.1-0.4-0.5-0.6-0.9-0.6H475.3z"/>
		<path class="color" d="M446.5,65.5h-12.9c-0.5,0-0.9,0.4-0.9,0.9v56.5c0,0.5,0.4,0.9,0.9,0.9h12.9c0.5,0,0.9-0.4,0.9-0.9V66.5
			C447.5,65.9,447,65.5,446.5,65.5z"/>
		<path class="color" d="M440.1,39.8c-5.1,0-9.3,4.2-9.3,9.3c0,5.1,4.2,9.3,9.3,9.3c5.1,0,9.3-4.2,9.3-9.3
			C449.4,43.9,445.2,39.8,440.1,39.8z"/>
	</g>
	<g>
		<path class="color" d="M553.5,83.7c-5.1,0-9.1-4.1-9.1-9.1c0-5,4-9.2,9.2-9.2c5.1,0,9.1,4.1,9.1,9.1
			C562.7,79.5,558.6,83.7,553.5,83.7z M553.6,66.3c-4.7,0-8.2,3.7-8.2,8.3c0,4.5,3.5,8.2,8.2,8.2c4.7,0,8.2-3.7,8.2-8.3
			C561.7,70,558.2,66.3,553.6,66.3z M555.6,75.4l2.6,3.6H556l-2.3-3.3h-2v3.3h-1.8v-9.6h4.3c2.2,0,3.7,1.1,3.7,3.1
			C557.8,74.1,556.9,75.1,555.6,75.4z M554,71.1h-2.4v3h2.4c1.2,0,1.9-0.6,1.9-1.5C555.9,71.7,555.2,71.1,554,71.1z"/>
	</g>
</g>
<g>
	<path class="color" d="M88,1.3C41.7,1.3,4.3,38.8,4.3,85c0,46.3,37.5,83.7,83.7,83.7c46.3,0,83.7-37.5,83.7-83.7
		C171.7,38.8,134.2,1.3,88,1.3z M126.4,122.1c-1.5,2.5-4.7,3.2-7.2,1.7c-19.7-12-44.4-14.7-73.6-8.1c-2.8,0.6-5.6-1.1-6.2-3.9
		c-0.6-2.8,1.1-5.6,3.9-6.2c31.9-7.3,59.3-4.2,81.3,9.3C127.1,116.4,127.9,119.6,126.4,122.1z M136.6,99.3c-1.9,3.1-5.9,4-9,2.2
		c-22.5-13.8-56.8-17.8-83.4-9.8c-3.5,1-7.1-0.9-8.1-4.3c-1-3.5,0.9-7.1,4.4-8.1c30.4-9.2,68.2-4.8,94.1,11.1
		C137.6,92.2,138.5,96.2,136.6,99.3z M137.5,75.5c-27-16-71.5-17.5-97.3-9.7c-4.1,1.3-8.5-1.1-9.8-5.2c-1.3-4.1,1.1-8.5,5.2-9.8
		c29.6-9,78.8-7.2,109.8,11.2c3.7,2.2,4.9,7,2.7,10.7C146.1,76.5,141.2,77.7,137.5,75.5z"/>
</g>
</svg>
