<?xml version="1.0" encoding="utf-8"?>
<svg version="1.1" id="reShuffle" xmlns="http://www.w3.org/2000/svg" xmlns:xlink="http://www.w3.org/1999/xlink" x="0px" y="0px"
	 viewBox="0 0 2000 2000" style="enable-background:new 0 0 2000 2000;" xml:space="preserve">
<style type="text/css">
	.color{fill:#00affe;}
</style>
<path id="Bottom_E" class="color" d="M1716.8,1584.6l-355.4-355.4v262.6h-240.7c-130.5,0-236.7-106.2-236.7-236.7V569.5H698.2V1255
	c0,232.9,189.5,422.4,422.4,422.4h240.7V1940L1716.8,1584.6z"/>
<path id="Top_R" class="color" d="M1300.2,322H699.8c-232.9,0-422.4,189.5-422.4,422.4V1677h185.7V744.4
	c0-130.5,106.2-236.7,236.7-236.7h600.4c130.5,0,236.7,106.2,236.7,236.7s-106.2,236.7-236.7,236.7V718.6L944.8,1074l355.4,355.4
	v-262.6c232.9,0,422.4-189.5,422.4-422.4S1533.1,322,1300.2,322z"/>
</svg>
