<?xml version="1.0" encoding="utf-8"?>
<svg version="1.1" id="reShuffle" xmlns="http://www.w3.org/2000/svg" xmlns:xlink="http://www.w3.org/1999/xlink" x="0px" y="0px"
	 viewBox="0 0 4555 1000" style="enable-background:new 0 0 4555 1000;" xml:space="preserve">
<style type="text/css">
	.color{fill:#00affe;}
</style>
<path id="Bottom_E" class="color" d="M880.8,792.3L703.1,614.6v131.3H582.7c-65.3,0-118.4-53.1-118.4-118.4V284.7h-92.8v342.7
	c0,116.5,94.8,211.2,211.2,211.2h120.4V970L880.8,792.3z"/>
<path id="Top_R" class="color" d="M672.5,161H372.3c-116.5,0-211.2,94.8-211.2,211.2v466.3h92.8V372.2c0-65.3,53.1-118.4,118.4-118.4
	h300.2c65.3,0,118.4,53.1,118.4,118.4s-53.1,118.4-118.4,118.4V359.3L494.8,537l177.7,177.7V583.4c116.5,0,211.2-94.8,211.2-211.2
	S789,161,672.5,161z"/>
<g id="text">
	<path id="r" d="M1045.5,837.9V461.1h118l4,51.4c17.9-37.3,55.6-59.3,99.8-59.3c15.1,0,30.6,2.7,46.5,7.9l-7.6,108
		c-15.9-5.5-32.2-8.2-48.1-8.2c-47.3,0-87.4,25.5-87.4,95.8v181.4H1045.5z"/>
	<path id="e" d="M1527.6,453.2c93.8,0,190.8,58.1,190.8,184.1c0,13.7-1.2,28.7-3.6,44h-257.5c5.2,40.8,44.9,60.1,84.3,60.1
		c34.2,0,64.8-21.2,85.4-46.7l79.5,69.1c-29,45.5-89,82.1-166.5,82.1c-121.2,0-205.1-81.7-205.1-196.3S1412.7,453.2,1527.6,453.2z
		 M1457.2,608.7h145.5c-1.2-29.4-31.4-58.1-71.5-58.1C1487.4,550.6,1461.6,577.7,1457.2,608.7z"/>
	<path id="s" d="M1875.3,652.6c30.6,47.1,81.1,76.6,133.5,76.6c42.5,0,77.5-16.9,77.5-41.2c0-34.2-45.7-44.4-110.5-63.6
		c-96.6-28.7-184.4-59.3-184.4-168.4c0-98.1,97-159,195.9-159c95.8,0,164.5,45.1,212.2,113.9l-96.6,70.3
		c-23.8-33.8-63.2-70.7-115.7-70.7c-37.8,0-64,17.7-64,43.2c0,35.3,41.3,41.6,99.8,60.9c122,40,195.1,71.8,195.1,169.2
		c0,111.1-109.7,162.1-212.6,162.1c-97,0-188-42.4-228.5-122.5L1875.3,652.6z"/>
	<path id="h" d="M2303.4,837.9V285.2h125.2v208.5c27.4-28.7,70.3-40.4,112.1-40.4c71.9,0,141.1,49.9,141.1,139.8v245h-125.2V628.3
		c0-42-33.8-62-64-62c-31.4,0-63.6,20-63.6,62v209.6H2303.4z"/>
	<path id="u" d="M2781.5,710V461.1h125.2v213.6c0,42,33.8,62,64,62c31.4,0,63.6-20,63.6-62V461.1h125.2v376.9h-114.9l-4-35.7
		c-27,33.8-73.1,47.5-118,47.5C2850.6,849.7,2781.5,799.9,2781.5,710z"/>
	<path id="ffl" d="M3289,461.1v-33c0-78.1,50.1-150.8,166.9-150.8c28.2,0,50.9,3.5,81.5,12.6l-13.1,100.5
		c-12.7-5.5-31.4-9.4-50.1-9.4c-32.2,0-64.4,12.6-64.4,54.2v25.9h139.9v-33c0-78.1,46.5-150.8,155-150.8c27,0,48.5,3.5,77.5,12.6
		l-13.1,100.5c-10.7-5.5-27-9.4-43.3-9.4c-27.4,0-55.2,12.6-55.2,54.2v25.9h97.8v100.9h-93.4v276h-125.2v-276h-135.5v276H3289v-276
		h-62.8V461.1H3289z M3932,285.2v552.8h-125.2V285.2H3932z"/>
	<path id="e2" d="M4207.1,453.2c93.8,0,190.8,58.1,190.8,184.1c0,13.7-1.2,28.7-3.6,44h-257.5c5.2,40.8,44.9,60.1,84.3,60.1
		c34.2,0,64.8-21.2,85.4-46.7l79.5,69.1c-29,45.5-89,82.1-166.5,82.1c-121.2,0-205.1-81.7-205.1-196.3S4092.2,453.2,4207.1,453.2z
		 M4136.7,608.7h145.5c-1.2-29.4-31.4-58.1-71.5-58.1C4166.9,550.6,4141.1,577.7,4136.7,608.7z"/>
</g>
</svg>
